<?xml version="1.0" encoding="UTF-8" standalone="no"?><svg xmlns="http://www.w3.org/2000/svg" xmlns:xlink="http://www.w3.org/1999/xlink" contentScriptType="application/ecmascript" contentStyleType="text/css" height="1128px" preserveAspectRatio="none" style="width:611px;height:1128px;background:#FFFFFF;" version="1.1" viewBox="0 0 611 1128" width="611px" zoomAndPan="magnify"><defs><filter height="300%" id="f10nzftiiqmls5" width="300%" x="-1" y="-1"><feGaussianBlur result="blurOut" stdDeviation="2.0"/><feColorMatrix in="blurOut" result="blurOut2" type="matrix" values="0 0 0 0 0 0 0 0 0 0 0 0 0 0 0 0 0 0 .4 0"/><feOffset dx="4.0" dy="4.0" in="blurOut2" result="blurOut3"/><feBlend in="SourceGraphic" in2="blurOut3" mode="normal"/></filter></defs><g><text fill="#000000" font-family="sans-serif" font-size="18" lengthAdjust="spacing" textLength="82" x="258" y="16.708">Sample 1</text><!--MD5=[b8e11ae3882668d59bd7103194ddeba8]
cluster play_1--><rect fill="#FEFECE" filter="url(#f10nzftiiqmls5)" height="956" rx="12.5" ry="12.5" style="stroke:#A80036;stroke-width:1.5;" width="592" x="7" y="93.9531"/><rect fill="#FFFFFF" height="896.0781" rx="12.5" ry="12.5" style="stroke:#FFFFFF;stroke-width:1.0;" width="586" x="10" y="150.875"/><line style="stroke:#A80036;stroke-width:1.5;" x1="7" x2="599" y1="147.875" y2="147.875"/><line style="stroke:#A80036;stroke-width:1.5;" x1="7" x2="599" y1="124.9063" y2="124.9063"/><text fill="#000000" font-family="sans-serif" font-size="18" font-weight="bold" lengthAdjust="spacing" textLength="149" x="228.5" y="114.6611">Play: Sample 1</text><text fill="#000000" font-family="sans-serif" font-size="12" lengthAdjust="spacing" textLength="35" x="16" y="140.5449">hosts</text><text fill="#000000" font-family="sans-serif" font-size="12" lengthAdjust="spacing" textLength="57" x="59" y="140.5449">localhost</text><line style="stroke:#000000;stroke-width:1.0;" x1="12" x2="120" y1="129.4063" y2="129.4063"/><line style="stroke:#000000;stroke-width:1.0;" x1="12" x2="120" y1="143.375" y2="143.375"/><line style="stroke:#000000;stroke-width:1.0;" x1="12" x2="12" y1="129.4063" y2="143.375"/><line style="stroke:#000000;stroke-width:1.0;" x1="55" x2="55" y1="129.4063" y2="143.375"/><line style="stroke:#000000;stroke-width:1.0;" x1="120" x2="120" y1="129.4063" y2="143.375"/><!--MD5=[70fc5da8be2e630b485d655cf49a3fc4]
cluster block_2--><rect fill="#FEFECE" filter="url(#f10nzftiiqmls5)" height="628" rx="12.5" ry="12.5" style="stroke:#A80036;stroke-width:1.5;" width="544" x="31" y="287.9531"/><rect fill="#FFFFFF" height="595.7031" rx="12.5" ry="12.5" style="stroke:#FFFFFF;stroke-width:1.0;" width="538" x="34" y="317.25"/><line style="stroke:#A80036;stroke-width:1.5;" x1="31" x2="575" y1="314.25" y2="314.25"/><text fill="#000000" font-family="sans-serif" font-size="14" lengthAdjust="spacing" textLength="197" x="204.5" y="304.9482">Block: Execute python script</text><!--MD5=[b225190cdec2e11d02dd120df3be27e4]
cluster block_2_always--><rect fill="#FEFECE" filter="url(#f10nzftiiqmls5)" height="378" rx="12.5" ry="12.5" style="stroke:#A80036;stroke-width:1.5;" width="258" x="162" y="513.9531"/><rect fill="#FFFFFF" height="345.7031" rx="12.5" ry="12.5" style="stroke:#FFFFFF;stroke-width:1.0;" width="252" x="165" y="543.25"/><line style="stroke:#A80036;stroke-width:1.5;" x1="162" x2="420" y1="540.25" y2="540.25"/><text fill="#000000" font-family="sans-serif" font-size="14" lengthAdjust="spacing" textLength="46" x="268" y="530.9482">Always</text><!--MD5=[eceda080b1d15d6fafcc7c48dedf5429]
cluster block_2_rescue--><rect fill="#FEFECE" filter="url(#f10nzftiiqmls5)" height="150" rx="12.5" ry="12.5" style="stroke:#A80036;stroke-width:1.5;" width="214" x="337" y="330.9531"/><rect fill="#FFFFFF" height="117.7031" rx="12.5" ry="12.5" style="stroke:#FFFFFF;stroke-width:1.0;" width="208" x="340" y="360.25"/><line style="stroke:#A80036;stroke-width:1.5;" x1="337" x2="551" y1="357.25" y2="357.25"/><text fill="#000000" font-family="sans-serif" font-size="14" lengthAdjust="spacing" textLength="53" x="417.5" y="347.9482">Rescue</text><g id="play_1.task_1"><rect fill="#FEFECE" filter="url(#f10nzftiiqmls5)" height="84.5313" rx="12.5" ry="12.5" style="stroke:#A80036;stroke-width:1.5;" width="167" x="99.5" y="155.9531"/><line style="stroke:#A80036;stroke-width:1.5;" x1="99.5" x2="266.5" y1="184.5781" y2="184.5781"/><text fill="#000000" font-family="sans-serif" font-size="16" font-weight="bold" lengthAdjust="spacing" textLength="147" x="109.5" y="175.8047">Create directory</text><text fill="#000000" font-family="sans-serif" font-size="12" lengthAdjust="spacing" textLength="39" x="104.5" y="200.7168">Action</text><text fill="#000000" font-family="sans-serif" font-size="12" font-weight="bold" lengthAdjust="spacing" textLength="22" x="147.5" y="200.7168">file</text><text fill="#000000" font-family="sans-serif" font-size="12" lengthAdjust="spacing" textLength="29" x="108.5" y="216.6855">path</text><text fill="#000000" font-family="sans-serif" font-size="12" lengthAdjust="spacing" textLength="70" x="149.5" y="216.6855">/path/to/dir</text><text fill="#000000" font-family="sans-serif" font-size="12" lengthAdjust="spacing" textLength="33" x="108.5" y="230.6543">state</text><text fill="#000000" font-family="sans-serif" font-size="12" lengthAdjust="spacing" textLength="55" x="149.5" y="230.6543">directory</text><line style="stroke:#000000;stroke-width:1.0;" x1="104.5" x2="223.5" y1="205.5469" y2="205.5469"/><line style="stroke:#000000;stroke-width:1.0;" x1="104.5" x2="223.5" y1="219.5156" y2="219.5156"/><line style="stroke:#000000;stroke-width:1.0;" x1="104.5" x2="223.5" y1="233.4844" y2="233.4844"/><line style="stroke:#000000;stroke-width:1.0;" x1="104.5" x2="104.5" y1="205.5469" y2="233.4844"/><line style="stroke:#000000;stroke-width:1.0;" x1="145.5" x2="145.5" y1="205.5469" y2="233.4844"/><line style="stroke:#000000;stroke-width:1.0;" x1="223.5" x2="223.5" y1="205.5469" y2="233.4844"/></g><g id="play_1.task_6"><rect fill="#FEFECE" filter="url(#f10nzftiiqmls5)" height="70.5625" rx="12.5" ry="12.5" style="stroke:#A80036;stroke-width:1.5;" width="137" x="337.5" y="962.9531"/><line style="stroke:#A80036;stroke-width:1.5;" x1="337.5" x2="474.5" y1="991.5781" y2="991.5781"/><text fill="#000000" font-family="sans-serif" font-size="16" font-weight="bold" lengthAdjust="spacing" textLength="117" x="347.5" y="982.8047">End Message</text><text fill="#000000" font-family="sans-serif" font-size="12" lengthAdjust="spacing" textLength="39" x="342.5" y="1007.7168">Action</text><text fill="#000000" font-family="sans-serif" font-size="12" font-weight="bold" lengthAdjust="spacing" textLength="45" x="385.5" y="1007.7168">debug</text><text fill="#000000" font-family="sans-serif" font-size="12" lengthAdjust="spacing" textLength="26" x="346.5" y="1023.6855">msg</text><text fill="#000000" font-family="sans-serif" font-size="12" lengthAdjust="spacing" textLength="24" x="380.5" y="1023.6855">End</text><line style="stroke:#000000;stroke-width:1.0;" x1="342.5" x2="408.5" y1="1012.5469" y2="1012.5469"/><line style="stroke:#000000;stroke-width:1.0;" x1="342.5" x2="408.5" y1="1026.5156" y2="1026.5156"/><line style="stroke:#000000;stroke-width:1.0;" x1="342.5" x2="342.5" y1="1012.5469" y2="1026.5156"/><line style="stroke:#000000;stroke-width:1.0;" x1="376.5" x2="376.5" y1="1012.5469" y2="1026.5156"/><line style="stroke:#000000;stroke-width:1.0;" x1="408.5" x2="408.5" y1="1012.5469" y2="1026.5156"/></g><g id="play_1.block_2.task_2"><rect fill="#FEFECE" filter="url(#f10nzftiiqmls5)" height="98.5" rx="12.5" ry="12.5" style="stroke:#A80036;stroke-width:1.5;" width="271" x="47.5" y="365.9531"/><line style="stroke:#A80036;stroke-width:1.5;" x1="47.5" x2="318.5" y1="394.5781" y2="394.5781"/><text fill="#000000" font-family="sans-serif" font-size="16" font-weight="bold" lengthAdjust="spacing" textLength="248" x="59" y="385.8047">Get python script from web</text><text fill="#000000" font-family="sans-serif" font-size="12" lengthAdjust="spacing" textLength="39" x="52.5" y="410.7168">Action</text><text fill="#000000" font-family="sans-serif" font-size="12" font-weight="bold" lengthAdjust="spacing" textLength="49" x="95.5" y="410.7168">get_url</text><text fill="#000000" font-family="sans-serif" font-size="12" lengthAdjust="spacing" textLength="16" x="56.5" y="426.6855">url</text><text fill="#000000" font-family="sans-serif" font-size="12" lengthAdjust="spacing" textLength="200" x="99.5" y="426.6855">https://example.com/path/file.py</text><text fill="#000000" font-family="sans-serif" font-size="12" lengthAdjust="spacing" textLength="28" x="56.5" y="440.6543">dest</text><text fill="#000000" font-family="sans-serif" font-size="12" lengthAdjust="spacing" textLength="110" x="99.5" y="440.6543">/path/to/dir/file.py</text><text fill="#000000" font-family="sans-serif" font-size="12" lengthAdjust="spacing" textLength="35" x="56.5" y="454.623">mode</text><text fill="#000000" font-family="sans-serif" font-size="12" lengthAdjust="spacing" textLength="32" x="99.5" y="454.623">0700</text><line style="stroke:#000000;stroke-width:1.0;" x1="52.5" x2="303.5" y1="415.5469" y2="415.5469"/><line style="stroke:#000000;stroke-width:1.0;" x1="52.5" x2="303.5" y1="429.5156" y2="429.5156"/><line style="stroke:#000000;stroke-width:1.0;" x1="52.5" x2="303.5" y1="443.4844" y2="443.4844"/><line style="stroke:#000000;stroke-width:1.0;" x1="52.5" x2="303.5" y1="457.4531" y2="457.4531"/><line style="stroke:#000000;stroke-width:1.0;" x1="52.5" x2="52.5" y1="415.5469" y2="457.4531"/><line style="stroke:#000000;stroke-width:1.0;" x1="95.5" x2="95.5" y1="415.5469" y2="457.4531"/><line style="stroke:#000000;stroke-width:1.0;" x1="303.5" x2="303.5" y1="415.5469" y2="457.4531"/></g><g id="play_1.block_2.block_2_always.task_3"><rect fill="#FEFECE" filter="url(#f10nzftiiqmls5)" height="84.5313" rx="12.5" ry="12.5" style="stroke:#A80036;stroke-width:1.5;" width="225" x="178.5" y="548.9531"/><line style="stroke:#A80036;stroke-width:1.5;" x1="178.5" x2="403.5" y1="577.5781" y2="577.5781"/><text fill="#000000" font-family="sans-serif" font-size="16" font-weight="bold" lengthAdjust="spacing" textLength="72" x="255" y="568.8047">execute</text><text fill="#000000" font-family="sans-serif" font-size="12" lengthAdjust="spacing" textLength="39" x="183.5" y="593.7168">Action</text><text fill="#000000" font-family="sans-serif" font-size="12" font-weight="bold" lengthAdjust="spacing" textLength="67" x="226.5" y="593.7168">command</text><text fill="#000000" font-family="sans-serif" font-size="12" lengthAdjust="spacing" textLength="69" x="187.5" y="609.6855">executable</text><text fill="#000000" font-family="sans-serif" font-size="12" lengthAdjust="spacing" textLength="102" x="276.5" y="609.6855">/usr/bin/python3</text><text fill="#000000" font-family="sans-serif" font-size="12" lengthAdjust="spacing" textLength="81" x="187.5" y="623.6543">_raw_params</text><text fill="#000000" font-family="sans-serif" font-size="12" lengthAdjust="spacing" textLength="108" x="276.5" y="623.6543">/paty/to/dir/file.py</text><line style="stroke:#000000;stroke-width:1.0;" x1="183.5" x2="388.5" y1="598.5469" y2="598.5469"/><line style="stroke:#000000;stroke-width:1.0;" x1="183.5" x2="388.5" y1="612.5156" y2="612.5156"/><line style="stroke:#000000;stroke-width:1.0;" x1="183.5" x2="388.5" y1="626.4844" y2="626.4844"/><line style="stroke:#000000;stroke-width:1.0;" x1="183.5" x2="183.5" y1="598.5469" y2="626.4844"/><line style="stroke:#000000;stroke-width:1.0;" x1="272.5" x2="272.5" y1="598.5469" y2="626.4844"/><line style="stroke:#000000;stroke-width:1.0;" x1="388.5" x2="388.5" y1="598.5469" y2="626.4844"/></g><polygon fill="#FEFECE" filter="url(#f10nzftiiqmls5)" points="201,707.4531,213,719.4531,201,731.4531,189,719.4531,201,707.4531" style="stroke:#A80036;stroke-width:1.5;"/><path d="M248.5,694.9531 L248.5,715.4531 L213.21,719.4531 L248.5,723.4531 L248.5,744.3828 A0,0 0 0 0 248.5,744.3828 L403.5,744.3828 A0,0 0 0 0 403.5,744.3828 L403.5,704.9531 L393.5,694.9531 L248.5,694.9531 A0,0 0 0 0 248.5,694.9531 " fill="#FBFB77" filter="url(#f10nzftiiqmls5)" style="stroke:#A80036;stroke-width:1.0;"/><path d="M393.5,694.9531 L393.5,704.9531 L403.5,704.9531 L393.5,694.9531 " fill="#FBFB77" style="stroke:#A80036;stroke-width:1.0;"/><text fill="#000000" font-family="sans-serif" font-size="14" font-weight="bold" lengthAdjust="spacing" textLength="44" x="254.5" y="712.9482">when</text><line style="stroke:#A80036;stroke-width:1.0;" x1="249.5" x2="402.5" y1="716.25" y2="716.25"/><text fill="#000000" font-family="sans-serif" font-size="13" lengthAdjust="spacing" textLength="130" x="258.5" y="732.3169">- exec_result.rc != 0</text><g id="play_1.block_2.block_2_always.task_4"><rect fill="#FEFECE" filter="url(#f10nzftiiqmls5)" height="70.5625" rx="12.5" ry="12.5" style="stroke:#A80036;stroke-width:1.5;" width="203" x="177.5" y="804.9531"/><line style="stroke:#A80036;stroke-width:1.5;" x1="177.5" x2="380.5" y1="833.5781" y2="833.5781"/><text fill="#000000" font-family="sans-serif" font-size="16" font-weight="bold" lengthAdjust="spacing" textLength="55" x="251.5" y="824.8047">debug</text><text fill="#000000" font-family="sans-serif" font-size="12" lengthAdjust="spacing" textLength="39" x="182.5" y="849.7168">Action</text><text fill="#000000" font-family="sans-serif" font-size="12" font-weight="bold" lengthAdjust="spacing" textLength="45" x="225.5" y="849.7168">debug</text><text fill="#000000" font-family="sans-serif" font-size="12" lengthAdjust="spacing" textLength="19" x="186.5" y="865.6855">var</text><text fill="#000000" font-family="sans-serif" font-size="12" lengthAdjust="spacing" textLength="148" x="213.5" y="865.6855">exec_result.stderr_lines</text><line style="stroke:#000000;stroke-width:1.0;" x1="182.5" x2="365.5" y1="854.5469" y2="854.5469"/><line style="stroke:#000000;stroke-width:1.0;" x1="182.5" x2="365.5" y1="868.5156" y2="868.5156"/><line style="stroke:#000000;stroke-width:1.0;" x1="182.5" x2="182.5" y1="854.5469" y2="868.5156"/><line style="stroke:#000000;stroke-width:1.0;" x1="209.5" x2="209.5" y1="854.5469" y2="868.5156"/><line style="stroke:#000000;stroke-width:1.0;" x1="365.5" x2="365.5" y1="854.5469" y2="868.5156"/></g><g id="play_1.block_2.block_2_rescue.task_5"><rect fill="#FEFECE" filter="url(#f10nzftiiqmls5)" height="98.5" rx="12.5" ry="12.5" style="stroke:#A80036;stroke-width:1.5;" width="181" x="353.5" y="365.9531"/><line style="stroke:#A80036;stroke-width:1.5;" x1="353.5" x2="534.5" y1="394.5781" y2="394.5781"/><text fill="#000000" font-family="sans-serif" font-size="16" font-weight="bold" lengthAdjust="spacing" textLength="110" x="389" y="385.8047">Use local file</text><text fill="#000000" font-family="sans-serif" font-size="12" lengthAdjust="spacing" textLength="39" x="358.5" y="410.7168">Action</text><text fill="#000000" font-family="sans-serif" font-size="12" font-weight="bold" lengthAdjust="spacing" textLength="33" x="401.5" y="410.7168">copy</text><text fill="#000000" font-family="sans-serif" font-size="12" lengthAdjust="spacing" textLength="19" x="362.5" y="426.6855">src</text><text fill="#000000" font-family="sans-serif" font-size="12" lengthAdjust="spacing" textLength="86" x="405.5" y="426.6855">path/to/file.py</text><text fill="#000000" font-family="sans-serif" font-size="12" lengthAdjust="spacing" textLength="28" x="362.5" y="440.6543">dest</text><text fill="#000000" font-family="sans-serif" font-size="12" lengthAdjust="spacing" textLength="110" x="405.5" y="440.6543">/path/to/dir/file.py</text><text fill="#000000" font-family="sans-serif" font-size="12" lengthAdjust="spacing" textLength="35" x="362.5" y="454.623">mode</text><text fill="#000000" font-family="sans-serif" font-size="12" lengthAdjust="spacing" textLength="32" x="405.5" y="454.623">0700</text><line style="stroke:#000000;stroke-width:1.0;" x1="358.5" x2="519.5" y1="415.5469" y2="415.5469"/><line style="stroke:#000000;stroke-width:1.0;" x1="358.5" x2="519.5" y1="429.5156" y2="429.5156"/><line style="stroke:#000000;stroke-width:1.0;" x1="358.5" x2="519.5" y1="443.4844" y2="443.4844"/><line style="stroke:#000000;stroke-width:1.0;" x1="358.5" x2="519.5" y1="457.4531" y2="457.4531"/><line style="stroke:#000000;stroke-width:1.0;" x1="358.5" x2="358.5" y1="415.5469" y2="457.4531"/><line style="stroke:#000000;stroke-width:1.0;" x1="401.5" x2="401.5" y1="415.5469" y2="457.4531"/><line style="stroke:#000000;stroke-width:1.0;" x1="519.5" x2="519.5" y1="415.5469" y2="457.4531"/></g><ellipse cx="183" cy="36.9531" fill="#000000" filter="url(#f10nzftiiqmls5)" rx="10" ry="10" style="stroke:none;stroke-width:1.0;"/><ellipse cx="406" cy="1106.9531" filter="url(#f10nzftiiqmls5)" rx="10" ry="10" style="stroke:#000000;stroke-width:1.0;fill:none;"/><ellipse cx="406.5" cy="1107.4531" fill="#000000" rx="6" ry="6" style="stroke:none;stroke-width:1.0;"/><!--MD5=[bef12ce00623643b1f63028dbbc13f9e]
link *start to task_1--><path d="M183,46.9831 C183,66.5831 183,114.1731 183,150.6331 " fill="none" id="*start-to-task_1" style="stroke:#A80036;stroke-width:1.0;"/><polygon fill="#A80036" points="183,155.9231,187,146.9231,183,150.9231,179,146.9231,183,155.9231" style="stroke:#A80036;stroke-width:1.0;"/><!--MD5=[8a9ae9483632de6ca65b376720807eef]
link task_1 to task_2--><path d="M183,241.1631 C183,275.1531 183,323.3931 183,360.3431 " fill="none" id="task_1-to-task_2" style="stroke:#A80036;stroke-width:1.0;"/><polygon fill="#A80036" points="183,365.7131,187,356.7131,183,360.7131,179,356.7131,183,365.7131" style="stroke:#A80036;stroke-width:1.0;"/><!--MD5=[76bdc0fe9b2a531da2ead1dd29688687]
link task_2 to task_3--><path d="M213.37,465.3831 C228.7,490.0831 247.2,519.8831 262.29,544.1931 " fill="none" id="task_2-to-task_3" style="stroke:#A80036;stroke-width:1.0;"/><polygon fill="#A80036" points="265.06,548.6631,263.6968,538.9091,262.4164,544.4191,256.9064,543.1388,265.06,548.6631" style="stroke:#A80036;stroke-width:1.0;"/><!--MD5=[5930ee4fd27f5c38c75ec01675d1d153]
link task_3 to task_4_when--><path d="M261.28,634.0631 C242.75,660.0031 220.29,691.4431 208.72,707.6431 " fill="none" id="task_3-to-task_4_when" style="stroke:#A80036;stroke-width:1.0;"/><polygon fill="#A80036" points="205.76,711.7931,214.251,706.8029,208.6702,707.7274,207.7458,702.1465,205.76,711.7931" style="stroke:#A80036;stroke-width:1.0;"/><!--MD5=[b5f6a0c8dc8e993f8b4bca08cfd660bc]
link task_4_when to task_4--><path d="M205.42,727.1931 C214.53,741.1031 236.04,773.9031 253.46,800.4831 " fill="none" id="task_4_when-to-task_4" style="stroke:#A80036;stroke-width:1.0;"/><polygon fill="#A80036" points="256.21,804.6931,254.6228,794.973,253.4695,800.511,247.9315,799.3578,256.21,804.6931" style="stroke:#A80036;stroke-width:1.0;"/><!--MD5=[219fa550475e523f4b95633e4586cdc0]
link task_4 to task_6--><path d="M307.19,876.0731 C327.16,900.6131 353.98,933.5531 374.63,958.9231 " fill="none" id="task_4-to-task_6" style="stroke:#A80036;stroke-width:1.0;"/><polygon fill="#A80036" points="377.89,962.9331,375.302,953.4304,374.73,959.0582,369.1022,958.4863,377.89,962.9331" style="stroke:#A80036;stroke-width:1.0;"/><!--MD5=[53e99f18d532bb25c16a145f123c781b]
link task_4_when to task_6--><path d="M207.03,726.1131 C212.81,731.3131 221.98,738.9431 231,743.9531 C300.06,782.3431 351.38,741.1531 398,804.9531 C430.33,849.2031 424.56,915.6631 416.21,957.7731 " fill="none" id="task_4_when-to-task_6" style="stroke:#A80036;stroke-width:1.0;"/><polygon fill="#A80036" points="415.18,962.7831,420.9213,954.7808,416.1935,957.8869,413.0873,953.1592,415.18,962.7831" style="stroke:#A80036;stroke-width:1.0;"/><text fill="#000000" font-family="sans-serif" font-size="13" lengthAdjust="spacing" textLength="25" x="423" y="845.02">skip</text><!--MD5=[4b7a9ff2796d3f505d74cc09eb5c854e]
link task_5 to task_3--><path d="M400.97,465.3831 C379.08,490.2831 352.62,520.3731 331.15,544.7931 " fill="none" id="task_5-to-task_3" style="stroke:#A80036;stroke-width:1.0;"/><polygon fill="#A80036" points="327.74,548.6631,336.6846,544.5408,331.0396,544.9064,330.6739,539.2614,327.74,548.6631" style="stroke:#A80036;stroke-width:1.0;"/><!--MD5=[fd352e9ab44bd20b981db64b89037045]
link task_6 to *end--><path d="M406,1034.0331 C406,1053.5431 406,1076.8931 406,1091.5831 " fill="none" id="task_6-to-*end" style="stroke:#A80036;stroke-width:1.0;"/><polygon fill="#A80036" points="406,1096.9431,410,1087.9431,406,1091.9431,402,1087.9431,406,1096.9431" style="stroke:#A80036;stroke-width:1.0;"/><!--MD5=[4bf7669c650babc58a57400557646bd1]
@startuml
title Sample 1
state "= Play: Sample 1" as play_1 {
    play_1 : | hosts | localhost |
    state "== Create directory" as task_1
    task_1 : Action **file**
    task_1 : | path | /path/to/dir |
    task_1 : | state | directory |
    state "Block: Execute python script" as block_2 {
        state "== Get python script from web" as task_2
        task_2 : Action **get_url**
        task_2 : | url | https://example.com/path/file.py |
        task_2 : | dest | /path/to/dir/file.py |
        task_2 : | mode | 0700 |
        state "Always" as block_2_always {
            state "== execute" as task_3
            task_3 : Action **command**
            task_3 : | executable | /usr/bin/python3 |
            task_3 : | _raw_params | /paty/to/dir/file.py |
            state task_4_when <<choice>>
            note right of task_4_when
                === when
                - - - -
                 - exec_result.rc != 0
            end note
            state "== debug" as task_4
            task_4 : Action **debug**
            task_4 : | var | exec_result.stderr_lines |
        }
        state "Rescue" as block_2_rescue {
            state "== Use local file" as task_5
            task_5 : Action **copy**
            task_5 : | src | path/to/file.py |
            task_5 : | dest | /path/to/dir/file.py |
            task_5 : | mode | 0700 |
        }
    }
    state "== End Message" as task_6
    task_6 : Action **debug**
    task_6 : | msg | End |
}
[*] - -> task_1
task_1 - -> task_2
task_2 - -> task_3
task_3 - -> task_4_when
task_4_when - -> task_4
task_4 - -> task_6
task_4_when - -> task_6 : skip
task_5 - -> task_3
task_6 - -> [*]
@enduml

PlantUML version 1.2022.0(Tue Jan 11 16:16:42 UTC 2022)
(GPL source distribution)
Java Runtime: OpenJDK Runtime Environment
JVM: OpenJDK 64-Bit Server VM
Default Encoding: UTF-8
Language: en
Country: null
--></g></svg>