<?xml version="1.0" encoding="UTF-8" standalone="no"?><svg xmlns="http://www.w3.org/2000/svg" xmlns:xlink="http://www.w3.org/1999/xlink" contentStyleType="text/css" height="1181px" preserveAspectRatio="none" style="width:613px;height:1181px;background:#FFFFFF;" version="1.1" viewBox="0 0 613 1181" width="613px" zoomAndPan="magnify"><defs/><g><!--cluster play_1--><g id="cluster_play_1"><path d="M19.5,73 L587.5,73 A12.5,12.5 0 0 1 600,85.5 L600,163.8281 L7,163.8281 L7,85.5 A12.5,12.5 0 0 1 19.5,73 " fill="#F1F1F1" style="stroke:#F1F1F1;stroke-width:1.0;"/><rect fill="none" height="1035" rx="12.5" ry="12.5" style="stroke:#181818;stroke-width:0.5;" width="593" x="7" y="73"/><line style="stroke:#181818;stroke-width:0.5;" x1="7" x2="600" y1="163.8281" y2="163.8281"/><line style="stroke:#181818;stroke-width:0.5;" x1="7" x2="600" y1="98.9531" y2="98.9531"/><text fill="#000000" font-family="sans-serif" font-size="18" font-weight="bold" lengthAdjust="spacing" textLength="151" x="228" y="93.708">Play: Sample 1</text><text fill="#000000" font-family="sans-serif" font-size="12" lengthAdjust="spacing" textLength="74" x="16" y="114.5918">gather_facts</text><text fill="#000000" font-family="sans-serif" font-size="12" lengthAdjust="spacing" textLength="31" x="98" y="114.5918">None</text><text fill="#000000" font-family="sans-serif" font-size="12" lengthAdjust="spacing" textLength="33" x="16" y="128.5605">hosts</text><text fill="#000000" font-family="sans-serif" font-size="12" lengthAdjust="spacing" textLength="54" x="98" y="128.5605">localhost</text><text fill="#000000" font-family="sans-serif" font-size="12" lengthAdjust="spacing" textLength="33" x="16" y="142.5293">serial</text><text fill="#000000" font-family="sans-serif" font-size="12" lengthAdjust="spacing" textLength="10" x="98" y="142.5293">[]</text><text fill="#000000" font-family="sans-serif" font-size="12" lengthAdjust="spacing" textLength="50" x="16" y="156.498">strategy</text><text fill="#000000" font-family="sans-serif" font-size="12" lengthAdjust="spacing" textLength="33" x="98" y="156.498">linear</text><line style="stroke:#000000;stroke-width:1.0;" x1="12" x2="156" y1="103.4531" y2="103.4531"/><line style="stroke:#000000;stroke-width:1.0;" x1="12" x2="156" y1="117.4219" y2="117.4219"/><line style="stroke:#000000;stroke-width:1.0;" x1="12" x2="156" y1="131.3906" y2="131.3906"/><line style="stroke:#000000;stroke-width:1.0;" x1="12" x2="156" y1="145.3594" y2="145.3594"/><line style="stroke:#000000;stroke-width:1.0;" x1="12" x2="156" y1="159.3281" y2="159.3281"/><line style="stroke:#000000;stroke-width:1.0;" x1="12" x2="12" y1="103.4531" y2="159.3281"/><line style="stroke:#000000;stroke-width:1.0;" x1="94" x2="94" y1="103.4531" y2="159.3281"/><line style="stroke:#000000;stroke-width:1.0;" x1="156" x2="156" y1="103.4531" y2="159.3281"/></g><!--cluster block_1--><g id="cluster_block_1"><path d="M43.5,309 L563.5,309 A12.5,12.5 0 0 1 576,321.5 L576,330.2969 L31,330.2969 L31,321.5 A12.5,12.5 0 0 1 43.5,309 " fill="#F1F1F1" style="stroke:#F1F1F1;stroke-width:1.0;"/><rect fill="none" height="665" rx="12.5" ry="12.5" style="stroke:#181818;stroke-width:0.5;" width="545" x="31" y="309"/><line style="stroke:#181818;stroke-width:0.5;" x1="31" x2="576" y1="330.2969" y2="330.2969"/><text fill="#000000" font-family="sans-serif" font-size="14" lengthAdjust="spacing" textLength="209" x="199" y="325.9951">Block: Execute python script</text></g><!--cluster block_1_always--><g id="cluster_block_1_always"><path d="M201.5,535 L430.5,535 A12.5,12.5 0 0 1 443,547.5 L443,556.2969 L189,556.2969 L189,547.5 A12.5,12.5 0 0 1 201.5,535 " fill="#F1F1F1" style="stroke:#F1F1F1;stroke-width:1.0;"/><rect fill="none" height="415" rx="12.5" ry="12.5" style="stroke:#181818;stroke-width:0.5;" width="254" x="189" y="535"/><line style="stroke:#181818;stroke-width:0.5;" x1="189" x2="443" y1="556.2969" y2="556.2969"/><text fill="#000000" font-family="sans-serif" font-size="14" lengthAdjust="spacing" textLength="48" x="292" y="551.9951">Always</text></g><!--cluster block_1_rescue--><g id="cluster_block_1_rescue"><path d="M354.5,352 L539.5,352 A12.5,12.5 0 0 1 552,364.5 L552,373.2969 L342,373.2969 L342,364.5 A12.5,12.5 0 0 1 354.5,352 " fill="#F1F1F1" style="stroke:#F1F1F1;stroke-width:1.0;"/><rect fill="none" height="150" rx="12.5" ry="12.5" style="stroke:#181818;stroke-width:0.5;" width="210" x="342" y="352"/><line style="stroke:#181818;stroke-width:0.5;" x1="342" x2="552" y1="373.2969" y2="373.2969"/><text fill="#000000" font-family="sans-serif" font-size="14" lengthAdjust="spacing" textLength="51" x="421.5" y="368.9951">Rescue</text></g><g id="play_1.task_1"><rect fill="#F1F1F1" height="84.5313" rx="12.5" ry="12.5" style="stroke:#181818;stroke-width:0.5;" width="172" x="99" y="177"/><line style="stroke:#181818;stroke-width:0.5;" x1="99" x2="271" y1="205.625" y2="205.625"/><text fill="#000000" font-family="sans-serif" font-size="16" font-weight="bold" lengthAdjust="spacing" textLength="152" x="109" y="196.8516">Create directory</text><text fill="#000000" font-family="sans-serif" font-size="12" lengthAdjust="spacing" textLength="37" x="104" y="221.7637">Action</text><text fill="#000000" font-family="sans-serif" font-size="12" font-weight="bold" lengthAdjust="spacing" textLength="24" x="145" y="221.7637">file</text><text fill="#000000" font-family="sans-serif" font-size="12" lengthAdjust="spacing" textLength="26" x="108" y="237.7324">path</text><text fill="#000000" font-family="sans-serif" font-size="12" lengthAdjust="spacing" textLength="66" x="146" y="237.7324">/path/to/dir</text><text fill="#000000" font-family="sans-serif" font-size="12" lengthAdjust="spacing" textLength="30" x="108" y="251.7012">state</text><text fill="#000000" font-family="sans-serif" font-size="12" lengthAdjust="spacing" textLength="55" x="146" y="251.7012">directory</text><line style="stroke:#000000;stroke-width:0.5;" x1="104" x2="216" y1="226.5938" y2="226.5938"/><line style="stroke:#000000;stroke-width:0.5;" x1="104" x2="216" y1="240.5625" y2="240.5625"/><line style="stroke:#000000;stroke-width:0.5;" x1="104" x2="216" y1="254.5313" y2="254.5313"/><line style="stroke:#000000;stroke-width:0.5;" x1="104" x2="104" y1="226.5938" y2="254.5313"/><line style="stroke:#000000;stroke-width:0.5;" x1="142" x2="142" y1="226.5938" y2="254.5313"/><line style="stroke:#000000;stroke-width:0.5;" x1="216" x2="216" y1="226.5938" y2="254.5313"/></g><g id="play_1.task_6"><rect fill="#F1F1F1" height="70.5625" rx="12.5" ry="12.5" style="stroke:#181818;stroke-width:0.5;" width="137" x="363.5" y="1021"/><line style="stroke:#181818;stroke-width:0.5;" x1="363.5" x2="500.5" y1="1049.625" y2="1049.625"/><text fill="#000000" font-family="sans-serif" font-size="16" font-weight="bold" lengthAdjust="spacing" textLength="117" x="373.5" y="1040.8516">End Message</text><text fill="#000000" font-family="sans-serif" font-size="12" lengthAdjust="spacing" textLength="37" x="368.5" y="1065.7637">Action</text><text fill="#000000" font-family="sans-serif" font-size="12" font-weight="bold" lengthAdjust="spacing" textLength="45" x="409.5" y="1065.7637">debug</text><text fill="#000000" font-family="sans-serif" font-size="12" lengthAdjust="spacing" textLength="26" x="372.5" y="1081.7324">msg</text><text fill="#000000" font-family="sans-serif" font-size="12" lengthAdjust="spacing" textLength="22" x="406.5" y="1081.7324">End</text><line style="stroke:#000000;stroke-width:0.5;" x1="368.5" x2="432.5" y1="1070.5938" y2="1070.5938"/><line style="stroke:#000000;stroke-width:0.5;" x1="368.5" x2="432.5" y1="1084.5625" y2="1084.5625"/><line style="stroke:#000000;stroke-width:0.5;" x1="368.5" x2="368.5" y1="1070.5938" y2="1084.5625"/><line style="stroke:#000000;stroke-width:0.5;" x1="402.5" x2="402.5" y1="1070.5938" y2="1084.5625"/><line style="stroke:#000000;stroke-width:0.5;" x1="432.5" x2="432.5" y1="1070.5938" y2="1084.5625"/></g><g id="play_1.block_1.task_2"><rect fill="#F1F1F1" height="98.5" rx="12.5" ry="12.5" style="stroke:#181818;stroke-width:0.5;" width="276" x="47" y="387"/><line style="stroke:#181818;stroke-width:0.5;" x1="47" x2="323" y1="415.625" y2="415.625"/><text fill="#000000" font-family="sans-serif" font-size="16" font-weight="bold" lengthAdjust="spacing" textLength="256" x="57" y="406.8516">Get python script from web</text><text fill="#000000" font-family="sans-serif" font-size="12" lengthAdjust="spacing" textLength="37" x="52" y="431.7637">Action</text><text fill="#000000" font-family="sans-serif" font-size="12" font-weight="bold" lengthAdjust="spacing" textLength="51" x="93" y="431.7637">get_url</text><text fill="#000000" font-family="sans-serif" font-size="12" lengthAdjust="spacing" textLength="15" x="56" y="447.7324">url</text><text fill="#000000" font-family="sans-serif" font-size="12" lengthAdjust="spacing" textLength="193" x="99" y="447.7324">https://example.com/path/file.py</text><text fill="#000000" font-family="sans-serif" font-size="12" lengthAdjust="spacing" textLength="27" x="56" y="461.7012">dest</text><text fill="#000000" font-family="sans-serif" font-size="12" lengthAdjust="spacing" textLength="106" x="99" y="461.7012">/path/to/dir/file.py</text><text fill="#000000" font-family="sans-serif" font-size="12" lengthAdjust="spacing" textLength="35" x="56" y="475.6699">mode</text><text fill="#000000" font-family="sans-serif" font-size="12" lengthAdjust="spacing" textLength="32" x="99" y="475.6699">0700</text><line style="stroke:#000000;stroke-width:0.5;" x1="52" x2="296" y1="436.5938" y2="436.5938"/><line style="stroke:#000000;stroke-width:0.5;" x1="52" x2="296" y1="450.5625" y2="450.5625"/><line style="stroke:#000000;stroke-width:0.5;" x1="52" x2="296" y1="464.5313" y2="464.5313"/><line style="stroke:#000000;stroke-width:0.5;" x1="52" x2="296" y1="478.5" y2="478.5"/><line style="stroke:#000000;stroke-width:0.5;" x1="52" x2="52" y1="436.5938" y2="478.5"/><line style="stroke:#000000;stroke-width:0.5;" x1="95" x2="95" y1="436.5938" y2="478.5"/><line style="stroke:#000000;stroke-width:0.5;" x1="296" x2="296" y1="436.5938" y2="478.5"/></g><g id="play_1.block_1.block_1_always.task_3"><rect fill="#F1F1F1" height="122.4688" rx="12.5" ry="12.5" style="stroke:#181818;stroke-width:0.5;" width="221" x="205.5" y="570"/><line style="stroke:#181818;stroke-width:0.5;" x1="205.5" x2="426.5" y1="598.625" y2="598.625"/><text fill="#000000" font-family="sans-serif" font-size="16" font-weight="bold" lengthAdjust="spacing" textLength="73" x="279.5" y="589.8516">execute</text><text fill="#000000" font-family="sans-serif" font-size="12" lengthAdjust="spacing" textLength="37" x="210.5" y="614.7637">Action</text><text fill="#000000" font-family="sans-serif" font-size="12" font-weight="bold" lengthAdjust="spacing" textLength="68" x="251.5" y="614.7637">command</text><text fill="#000000" font-family="sans-serif" font-size="12" lengthAdjust="spacing" textLength="67" x="214.5" y="630.7324">executable</text><text fill="#000000" font-family="sans-serif" font-size="12" lengthAdjust="spacing" textLength="98" x="301.5" y="630.7324">/usr/bin/python3</text><text fill="#000000" font-family="sans-serif" font-size="12" lengthAdjust="spacing" textLength="79" x="214.5" y="644.7012">_raw_params</text><text fill="#000000" font-family="sans-serif" font-size="12" lengthAdjust="spacing" textLength="106" x="301.5" y="644.7012">/paty/to/dir/file.py</text><line style="stroke:#000000;stroke-width:0.5;" x1="210.5" x2="411.5" y1="619.5938" y2="619.5938"/><line style="stroke:#000000;stroke-width:0.5;" x1="210.5" x2="411.5" y1="633.5625" y2="633.5625"/><line style="stroke:#000000;stroke-width:0.5;" x1="210.5" x2="411.5" y1="647.5313" y2="647.5313"/><line style="stroke:#000000;stroke-width:0.5;" x1="210.5" x2="210.5" y1="619.5938" y2="647.5313"/><line style="stroke:#000000;stroke-width:0.5;" x1="297.5" x2="297.5" y1="619.5938" y2="647.5313"/><line style="stroke:#000000;stroke-width:0.5;" x1="411.5" x2="411.5" y1="619.5938" y2="647.5313"/><line style="stroke:#181818;stroke-width:1.0;stroke-dasharray:1.0,2.0;" x1="210.5" x2="411.5" y1="654.5313" y2="654.5313"/><text fill="#000000" font-family="sans-serif" font-size="12" font-weight="bold" lengthAdjust="spacing" textLength="56" x="210.5" y="670.6699">become</text><text fill="#000000" font-family="sans-serif" font-size="12" lengthAdjust="spacing" textLength="22" x="270.5" y="670.6699">yes</text><text fill="#000000" font-family="sans-serif" font-size="12" font-weight="bold" lengthAdjust="spacing" textLength="60" x="210.5" y="684.6387">register</text><text fill="#000000" font-family="sans-serif" font-size="12" lengthAdjust="spacing" textLength="4" x="270.5" y="684.6387"> </text><text fill="#000000" font-family="sans-serif" font-size="12" font-style="italic" lengthAdjust="spacing" textLength="68" x="274.5" y="684.6387">exec_result</text></g><g id="elem_task_4_when"><polygon fill="#F1F1F1" points="224,765.5,236,777.5,224,789.5,212,777.5,224,765.5" style="stroke:#181818;stroke-width:0.5;"/></g><g id="elem_GMN9"><path d="M271.5,753 L271.5,773.5 L236.207,777.5 L271.5,781.5 L271.5,802.4297 A0,0 0 0 0 271.5,802.4297 L426.5,802.4297 A0,0 0 0 0 426.5,802.4297 L426.5,763 L416.5,753 L271.5,753 A0,0 0 0 0 271.5,753 " fill="#FEFFDD" style="stroke:#181818;stroke-width:0.5;"/><path d="M416.5,753 L416.5,763 L426.5,763 L416.5,753 " fill="#FEFFDD" style="stroke:#181818;stroke-width:0.5;"/><text fill="#000000" font-family="sans-serif" font-size="14" font-weight="bold" lengthAdjust="spacing" textLength="42" x="277.5" y="770.9951">when</text><line style="stroke:#181818;stroke-width:1.0;" x1="272.5" x2="425.5" y1="774.2969" y2="774.2969"/><text fill="#000000" font-family="sans-serif" font-size="13" lengthAdjust="spacing" textLength="130" x="281.5" y="790.3638">- exec_result.rc != 0</text></g><g id="play_1.block_1.block_1_always.task_4"><rect fill="#F1F1F1" height="70.5625" rx="12.5" ry="12.5" style="stroke:#181818;stroke-width:0.5;" width="199" x="205.5" y="863"/><line style="stroke:#181818;stroke-width:0.5;" x1="205.5" x2="404.5" y1="891.625" y2="891.625"/><text fill="#000000" font-family="sans-serif" font-size="16" font-weight="bold" lengthAdjust="spacing" textLength="55" x="277.5" y="882.8516">debug</text><text fill="#000000" font-family="sans-serif" font-size="12" lengthAdjust="spacing" textLength="37" x="210.5" y="907.7637">Action</text><text fill="#000000" font-family="sans-serif" font-size="12" font-weight="bold" lengthAdjust="spacing" textLength="45" x="251.5" y="907.7637">debug</text><text fill="#000000" font-family="sans-serif" font-size="12" lengthAdjust="spacing" textLength="19" x="214.5" y="923.7324">var</text><text fill="#000000" font-family="sans-serif" font-size="12" lengthAdjust="spacing" textLength="144" x="241.5" y="923.7324">exec_result.stderr_lines</text><line style="stroke:#000000;stroke-width:0.5;" x1="210.5" x2="389.5" y1="912.5938" y2="912.5938"/><line style="stroke:#000000;stroke-width:0.5;" x1="210.5" x2="389.5" y1="926.5625" y2="926.5625"/><line style="stroke:#000000;stroke-width:0.5;" x1="210.5" x2="210.5" y1="912.5938" y2="926.5625"/><line style="stroke:#000000;stroke-width:0.5;" x1="237.5" x2="237.5" y1="912.5938" y2="926.5625"/><line style="stroke:#000000;stroke-width:0.5;" x1="389.5" x2="389.5" y1="912.5938" y2="926.5625"/></g><g id="play_1.block_1.block_1_rescue.task_5"><rect fill="#F1F1F1" height="98.5" rx="12.5" ry="12.5" style="stroke:#181818;stroke-width:0.5;" width="177" x="358.5" y="387"/><line style="stroke:#181818;stroke-width:0.5;" x1="358.5" x2="535.5" y1="415.625" y2="415.625"/><text fill="#000000" font-family="sans-serif" font-size="16" font-weight="bold" lengthAdjust="spacing" textLength="117" x="388.5" y="406.8516">Use local file</text><text fill="#000000" font-family="sans-serif" font-size="12" lengthAdjust="spacing" textLength="37" x="363.5" y="431.7637">Action</text><text fill="#000000" font-family="sans-serif" font-size="12" font-weight="bold" lengthAdjust="spacing" textLength="34" x="404.5" y="431.7637">copy</text><text fill="#000000" font-family="sans-serif" font-size="12" lengthAdjust="spacing" textLength="19" x="367.5" y="447.7324">src</text><text fill="#000000" font-family="sans-serif" font-size="12" lengthAdjust="spacing" textLength="82" x="410.5" y="447.7324">path/to/file.py</text><text fill="#000000" font-family="sans-serif" font-size="12" lengthAdjust="spacing" textLength="27" x="367.5" y="461.7012">dest</text><text fill="#000000" font-family="sans-serif" font-size="12" lengthAdjust="spacing" textLength="106" x="410.5" y="461.7012">/path/to/dir/file.py</text><text fill="#000000" font-family="sans-serif" font-size="12" lengthAdjust="spacing" textLength="35" x="367.5" y="475.6699">mode</text><text fill="#000000" font-family="sans-serif" font-size="12" lengthAdjust="spacing" textLength="32" x="410.5" y="475.6699">0700</text><line style="stroke:#000000;stroke-width:0.5;" x1="363.5" x2="520.5" y1="436.5938" y2="436.5938"/><line style="stroke:#000000;stroke-width:0.5;" x1="363.5" x2="520.5" y1="450.5625" y2="450.5625"/><line style="stroke:#000000;stroke-width:0.5;" x1="363.5" x2="520.5" y1="464.5313" y2="464.5313"/><line style="stroke:#000000;stroke-width:0.5;" x1="363.5" x2="520.5" y1="478.5" y2="478.5"/><line style="stroke:#000000;stroke-width:0.5;" x1="363.5" x2="363.5" y1="436.5938" y2="478.5"/><line style="stroke:#000000;stroke-width:0.5;" x1="406.5" x2="406.5" y1="436.5938" y2="478.5"/><line style="stroke:#000000;stroke-width:0.5;" x1="520.5" x2="520.5" y1="436.5938" y2="478.5"/></g><ellipse cx="185" cy="16" fill="#222222" rx="10" ry="10" style="stroke:none;stroke-width:1.0;"/><ellipse cx="432" cy="1165" fill="none" rx="10" ry="10" style="stroke:#222222;stroke-width:1.0;"/><ellipse cx="432.5" cy="1165.5" fill="#222222" rx="6" ry="6" style="stroke:none;stroke-width:1.0;"/><!--link *start* to task_1--><g id="link_*start*_task_1"><path d="M185,26.18 C185,51.44 185,123.28 185,171.64 " fill="none" id="*start*-to-task_1" style="stroke:#181818;stroke-width:1.0;"/><polygon fill="#181818" points="185,176.833,189,167.833,185,171.833,181,167.833,185,176.833" style="stroke:#181818;stroke-width:1.0;"/></g><!--link task_1 to task_2--><g id="link_task_1_task_2"><path d="M185,262.209 C185,296.195 185,344.437 185,381.394 " fill="none" id="task_1-to-task_2" style="stroke:#181818;stroke-width:1.0;"/><polygon fill="#181818" points="185,386.761,189,377.761,185,381.761,181,377.761,185,386.761" style="stroke:#181818;stroke-width:1.0;"/></g><!--link task_2 to task_3--><g id="link_task_2_task_3"><path d="M218.057,486.076 C234.461,510.181 254.497,539.623 272.163,565.584 " fill="none" id="task_2-to-task_3" style="stroke:#181818;stroke-width:1.0;"/><polygon fill="#181818" points="274.978,569.719,273.2209,560.0282,272.1647,565.5855,266.6073,564.5294,274.978,569.719" style="stroke:#181818;stroke-width:1.0;"/></g><!--link task_3 to task_4_when--><g id="link_task_3_task_4_when"><path d="M277.783,692.026 C260.245,719.572 241.152,749.561 231.105,765.341 " fill="none" id="task_3-to-task_4_when" style="stroke:#181818;stroke-width:1.0;"/><polygon fill="#181818" points="228.289,769.763,236.4966,764.3192,230.9742,765.5452,229.7482,760.0228,228.289,769.763" style="stroke:#181818;stroke-width:1.0;"/></g><!--link task_4_when to task_4--><g id="link_task_4_when_task_4"><path d="M228.587,785.239 C238.054,799.147 260.384,831.952 278.474,858.53 " fill="none" id="task_4_when-to-task_4" style="stroke:#181818;stroke-width:1.0;"/><polygon fill="#181818" points="281.338,862.738,279.5824,853.0469,278.5254,858.6041,272.9682,857.547,281.338,862.738" style="stroke:#181818;stroke-width:1.0;"/></g><!--link task_4 to task_6--><g id="link_task_4_task_6"><path d="M333.185,934.121 C353.163,958.661 379.978,991.599 400.633,1016.971 " fill="none" id="task_4-to-task_6" style="stroke:#181818;stroke-width:1.0;"/><polygon fill="#181818" points="403.893,1020.975,401.3136,1011.4699,400.7365,1017.0973,395.1092,1016.5203,403.893,1020.975" style="stroke:#181818;stroke-width:1.0;"/></g><!--link task_4_when to task_6--><g id="link_task_4_when_task_6"><path d="M230.025,784.164 C235.809,789.363 244.974,796.994 254,802 C323.467,840.529 374.739,799.152 422,863 C454.621,907.07 449.583,973.578 441.728,1015.753 " fill="none" id="task_4_when-to-task_6" style="stroke:#181818;stroke-width:1.0;"/><polygon fill="#181818" points="440.759,1020.772,446.394,1012.6944,441.7077,1015.8628,438.5393,1011.1765,440.759,1020.772" style="stroke:#181818;stroke-width:1.0;"/><text fill="#000000" font-family="sans-serif" font-size="13" lengthAdjust="spacing" textLength="25" x="448" y="903.0669">skip</text></g><!--link task_5 to task_3--><g id="link_task_5_task_3"><path d="M413.943,486.076 C397.539,510.181 377.503,539.623 359.837,565.584 " fill="none" id="task_5-to-task_3" style="stroke:#181818;stroke-width:1.0;"/><polygon fill="#181818" points="357.022,569.719,365.3927,564.5294,359.8353,565.5855,358.7791,560.0282,357.022,569.719" style="stroke:#181818;stroke-width:1.0;"/></g><!--link task_6 to *end*--><g id="link_task_6_*end*"><path d="M432,1092.0775 C432,1111.5949 432,1134.9443 432,1149.6274 " fill="none" id="task_6-to-*end*" style="stroke:#181818;stroke-width:1.0;"/><polygon fill="#181818" points="432,1154.9873,436,1145.9873,432,1149.9873,428,1145.9873,432,1154.9873" style="stroke:#181818;stroke-width:1.0;"/></g><!--SRC=[bLHBRzim3BxxLt0z6cYSD8y2GHEW6ugTDWmRTYeAGxOPsuXVa9Ibnjp_FifMRSbn2am7Mo8_YkH7Ya8oYN2pWnyPgxVmY-LLXh2u0IQW8f6_WByEqDA7BJGGCvaWzmyib8AEtyi2eHc3abAqsgmCMQOEbn21F6KPRPvV9fIIKsHnhQv82sHSGuGEU0TVEAfjb78CPSdhDcR9nD5VjCXkIvSzXZ8j2t3TGvgXwzhA1YfAXtwU-dkozEX2xSi0TMwRmPiTpcTAyxY5frSCJtIkQfcGHn7oj99jN842z6JQYNn5QLl0WPSvd34OKhhhxRgZcLQCqZ_nJ6TcOHeWXQg6b9NOUXw-jWMUXMNUvQiecLNlsOni8rHbivZvs20l8qNI_7u-Dm0wqyVip6fXik6pLcIGOXE37Pq32qiBs8bC9YYjd1MHmOI5Q_IDBCXKcDv9S2z82wyZVsc4F3BpEJlx5UCi5vgF-ZeVbksCrhJ6TGEaUAaXeKPn3SCnJeL4JYXLFGnzZkAKIS-RuAorM_dd10juU0YJCWrnlxU0HKaudiQ9XF9W6bWejNPKW4d5BQqB8To24TsCX_1f1tCBXaNKkhzIx0Y3KpoKUdN9oCeiTGkVAlIghTWVDJ2ia8ICa7DV3HDXLEjjtAO_KOGdjDgKjwAhRVfRO3VcG3N3aCBwChYrtQrLFPN1kfiun64td5IhVT1cw_zugoEZwVVQKV8s6hTFLBvlA0IBZHGtmvpSNAjEhoL_8gQlkgbntfndzuMQQVy-i_MqxILtZfuilMJfw9VHItJlceq_wBHua6ocWIesSKmhHpCpzhTf9HJjFm00]--></g></svg>